<?xml version="1.0" encoding="UTF-8"?>
<svg xmlns="http://www.w3.org/2000/svg" width="100mm" height="60mm" viewBox="0 0 100 60">
  <!-- generated: 601-node zigzag over ~72 mm of path (~8.3 nodes/mm) — a classic auto-traced mess -->
  <path d="M 10.000 29.975 L 10.050 30.025 L 10.100 29.975 L 10.150 30.025 L 10.200 29.975 L 10.250 30.025 L 10.300 29.975 L 10.350 30.025 L 10.400 29.975 L 10.450 30.025 L 10.500 29.975 L 10.550 30.025 L 10.600 29.975 L 10.650 30.025 L 10.700 29.975 L 10.750 30.025 L 10.800 29.975 L 10.850 30.025 L 10.900 29.975 L 10.950 30.025 L 11.000 29.975 L 11.050 30.025 L 11.100 29.975 L 11.150 30.025 L 11.200 29.975 L 11.250 30.025 L 11.300 29.975 L 11.350 30.025 L 11.400 29.975 L 11.450 30.025 L 11.500 29.975 L 11.550 30.025 L 11.600 29.975 L 11.650 30.025 L 11.700 29.975 L 11.750 30.025 L 11.800 29.975 L 11.850 30.025 L 11.900 29.975 L 11.950 30.025 L 12.000 29.975 L 12.050 30.025 L 12.100 29.975 L 12.150 30.025 L 12.200 29.975 L 12.250 30.025 L 12.300 29.975 L 12.350 30.025 L 12.400 29.975 L 12.450 30.025 L 12.500 29.975 L 12.550 30.025 L 12.600 29.975 L 12.650 30.025 L 12.700 29.975 L 12.750 30.025 L 12.800 29.975 L 12.850 30.025 L 12.900 29.975 L 12.950 30.025 L 13.000 29.975 L 13.050 30.025 L 13.100 29.975 L 13.150 30.025 L 13.200 29.975 L 13.250 30.025 L 13.300 29.975 L 13.350 30.025 L 13.400 29.975 L 13.450 30.025 L 13.500 29.975 L 13.550 30.025 L 13.600 29.975 L 13.650 30.025 L 13.700 29.975 L 13.750 30.025 L 13.800 29.975 L 13.850 30.025 L 13.900 29.975 L 13.950 30.025 L 14.000 29.975 L 14.050 30.025 L 14.100 29.975 L 14.150 30.025 L 14.200 29.975 L 14.250 30.025 L 14.300 29.975 L 14.350 30.025 L 14.400 29.975 L 14.450 30.025 L 14.500 29.975 L 14.550 30.025 L 14.600 29.975 L 14.650 30.025 L 14.700 29.975 L 14.750 30.025 L 14.800 29.975 L 14.850 30.025 L 14.900 29.975 L 14.950 30.025 L 15.000 29.975 L 15.050 30.025 L 15.100 29.975 L 15.150 30.025 L 15.200 29.975 L 15.250 30.025 L 15.300 29.975 L 15.350 30.025 L 15.400 29.975 L 15.450 30.025 L 15.500 29.975 L 15.550 30.025 L 15.600 29.975 L 15.650 30.025 L 15.700 29.975 L 15.750 30.025 L 15.800 29.975 L 15.850 30.025 L 15.900 29.975 L 15.950 30.025 L 16.000 29.975 L 16.050 30.025 L 16.100 29.975 L 16.150 30.025 L 16.200 29.975 L 16.250 30.025 L 16.300 29.975 L 16.350 30.025 L 16.400 29.975 L 16.450 30.025 L 16.500 29.975 L 16.550 30.025 L 16.600 29.975 L 16.650 30.025 L 16.700 29.975 L 16.750 30.025 L 16.800 29.975 L 16.850 30.025 L 16.900 29.975 L 16.950 30.025 L 17.000 29.975 L 17.050 30.025 L 17.100 29.975 L 17.150 30.025 L 17.200 29.975 L 17.250 30.025 L 17.300 29.975 L 17.350 30.025 L 17.400 29.975 L 17.450 30.025 L 17.500 29.975 L 17.550 30.025 L 17.600 29.975 L 17.650 30.025 L 17.700 29.975 L 17.750 30.025 L 17.800 29.975 L 17.850 30.025 L 17.900 29.975 L 17.950 30.025 L 18.000 29.975 L 18.050 30.025 L 18.100 29.975 L 18.150 30.025 L 18.200 29.975 L 18.250 30.025 L 18.300 29.975 L 18.350 30.025 L 18.400 29.975 L 18.450 30.025 L 18.500 29.975 L 18.550 30.025 L 18.600 29.975 L 18.650 30.025 L 18.700 29.975 L 18.750 30.025 L 18.800 29.975 L 18.850 30.025 L 18.900 29.975 L 18.950 30.025 L 19.000 29.975 L 19.050 30.025 L 19.100 29.975 L 19.150 30.025 L 19.200 29.975 L 19.250 30.025 L 19.300 29.975 L 19.350 30.025 L 19.400 29.975 L 19.450 30.025 L 19.500 29.975 L 19.550 30.025 L 19.600 29.975 L 19.650 30.025 L 19.700 29.975 L 19.750 30.025 L 19.800 29.975 L 19.850 30.025 L 19.900 29.975 L 19.950 30.025 L 20.000 29.975 L 20.050 30.025 L 20.100 29.975 L 20.150 30.025 L 20.200 29.975 L 20.250 30.025 L 20.300 29.975 L 20.350 30.025 L 20.400 29.975 L 20.450 30.025 L 20.500 29.975 L 20.550 30.025 L 20.600 29.975 L 20.650 30.025 L 20.700 29.975 L 20.750 30.025 L 20.800 29.975 L 20.850 30.025 L 20.900 29.975 L 20.950 30.025 L 21.000 29.975 L 21.050 30.025 L 21.100 29.975 L 21.150 30.025 L 21.200 29.975 L 21.250 30.025 L 21.300 29.975 L 21.350 30.025 L 21.400 29.975 L 21.450 30.025 L 21.500 29.975 L 21.550 30.025 L 21.600 29.975 L 21.650 30.025 L 21.700 29.975 L 21.750 30.025 L 21.800 29.975 L 21.850 30.025 L 21.900 29.975 L 21.950 30.025 L 22.000 29.975 L 22.050 30.025 L 22.100 29.975 L 22.150 30.025 L 22.200 29.975 L 22.250 30.025 L 22.300 29.975 L 22.350 30.025 L 22.400 29.975 L 22.450 30.025 L 22.500 29.975 L 22.550 30.025 L 22.600 29.975 L 22.650 30.025 L 22.700 29.975 L 22.750 30.025 L 22.800 29.975 L 22.850 30.025 L 22.900 29.975 L 22.950 30.025 L 23.000 29.975 L 23.050 30.025 L 23.100 29.975 L 23.150 30.025 L 23.200 29.975 L 23.250 30.025 L 23.300 29.975 L 23.350 30.025 L 23.400 29.975 L 23.450 30.025 L 23.500 29.975 L 23.550 30.025 L 23.600 29.975 L 23.650 30.025 L 23.700 29.975 L 23.750 30.025 L 23.800 29.975 L 23.850 30.025 L 23.900 29.975 L 23.950 30.025 L 24.000 29.975 L 24.050 30.025 L 24.100 29.975 L 24.150 30.025 L 24.200 29.975 L 24.250 30.025 L 24.300 29.975 L 24.350 30.025 L 24.400 29.975 L 24.450 30.025 L 24.500 29.975 L 24.550 30.025 L 24.600 29.975 L 24.650 30.025 L 24.700 29.975 L 24.750 30.025 L 24.800 29.975 L 24.850 30.025 L 24.900 29.975 L 24.950 30.025 L 25.000 29.975 L 25.050 30.025 L 25.100 29.975 L 25.150 30.025 L 25.200 29.975 L 25.250 30.025 L 25.300 29.975 L 25.350 30.025 L 25.400 29.975 L 25.450 30.025 L 25.500 29.975 L 25.550 30.025 L 25.600 29.975 L 25.650 30.025 L 25.700 29.975 L 25.750 30.025 L 25.800 29.975 L 25.850 30.025 L 25.900 29.975 L 25.950 30.025 L 26.000 29.975 L 26.050 30.025 L 26.100 29.975 L 26.150 30.025 L 26.200 29.975 L 26.250 30.025 L 26.300 29.975 L 26.350 30.025 L 26.400 29.975 L 26.450 30.025 L 26.500 29.975 L 26.550 30.025 L 26.600 29.975 L 26.650 30.025 L 26.700 29.975 L 26.750 30.025 L 26.800 29.975 L 26.850 30.025 L 26.900 29.975 L 26.950 30.025 L 27.000 29.975 L 27.050 30.025 L 27.100 29.975 L 27.150 30.025 L 27.200 29.975 L 27.250 30.025 L 27.300 29.975 L 27.350 30.025 L 27.400 29.975 L 27.450 30.025 L 27.500 29.975 L 27.550 30.025 L 27.600 29.975 L 27.650 30.025 L 27.700 29.975 L 27.750 30.025 L 27.800 29.975 L 27.850 30.025 L 27.900 29.975 L 27.950 30.025 L 28.000 29.975 L 28.050 30.025 L 28.100 29.975 L 28.150 30.025 L 28.200 29.975 L 28.250 30.025 L 28.300 29.975 L 28.350 30.025 L 28.400 29.975 L 28.450 30.025 L 28.500 29.975 L 28.550 30.025 L 28.600 29.975 L 28.650 30.025 L 28.700 29.975 L 28.750 30.025 L 28.800 29.975 L 28.850 30.025 L 28.900 29.975 L 28.950 30.025 L 29.000 29.975 L 29.050 30.025 L 29.100 29.975 L 29.150 30.025 L 29.200 29.975 L 29.250 30.025 L 29.300 29.975 L 29.350 30.025 L 29.400 29.975 L 29.450 30.025 L 29.500 29.975 L 29.550 30.025 L 29.600 29.975 L 29.650 30.025 L 29.700 29.975 L 29.750 30.025 L 29.800 29.975 L 29.850 30.025 L 29.900 29.975 L 29.950 30.025 L 30.000 29.975 L 30.050 30.025 L 30.100 29.975 L 30.150 30.025 L 30.200 29.975 L 30.250 30.025 L 30.300 29.975 L 30.350 30.025 L 30.400 29.975 L 30.450 30.025 L 30.500 29.975 L 30.550 30.025 L 30.600 29.975 L 30.650 30.025 L 30.700 29.975 L 30.750 30.025 L 30.800 29.975 L 30.850 30.025 L 30.900 29.975 L 30.950 30.025 L 31.000 29.975 L 31.050 30.025 L 31.100 29.975 L 31.150 30.025 L 31.200 29.975 L 31.250 30.025 L 31.300 29.975 L 31.350 30.025 L 31.400 29.975 L 31.450 30.025 L 31.500 29.975 L 31.550 30.025 L 31.600 29.975 L 31.650 30.025 L 31.700 29.975 L 31.750 30.025 L 31.800 29.975 L 31.850 30.025 L 31.900 29.975 L 31.950 30.025 L 32.000 29.975 L 32.050 30.025 L 32.100 29.975 L 32.150 30.025 L 32.200 29.975 L 32.250 30.025 L 32.300 29.975 L 32.350 30.025 L 32.400 29.975 L 32.450 30.025 L 32.500 29.975 L 32.550 30.025 L 32.600 29.975 L 32.650 30.025 L 32.700 29.975 L 32.750 30.025 L 32.800 29.975 L 32.850 30.025 L 32.900 29.975 L 32.950 30.025 L 33.000 29.975 L 33.050 30.025 L 33.100 29.975 L 33.150 30.025 L 33.200 29.975 L 33.250 30.025 L 33.300 29.975 L 33.350 30.025 L 33.400 29.975 L 33.450 30.025 L 33.500 29.975 L 33.550 30.025 L 33.600 29.975 L 33.650 30.025 L 33.700 29.975 L 33.750 30.025 L 33.800 29.975 L 33.850 30.025 L 33.900 29.975 L 33.950 30.025 L 34.000 29.975 L 34.050 30.025 L 34.100 29.975 L 34.150 30.025 L 34.200 29.975 L 34.250 30.025 L 34.300 29.975 L 34.350 30.025 L 34.400 29.975 L 34.450 30.025 L 34.500 29.975 L 34.550 30.025 L 34.600 29.975 L 34.650 30.025 L 34.700 29.975 L 34.750 30.025 L 34.800 29.975 L 34.850 30.025 L 34.900 29.975 L 34.950 30.025 L 35.000 29.975 L 35.050 30.025 L 35.100 29.975 L 35.150 30.025 L 35.200 29.975 L 35.250 30.025 L 35.300 29.975 L 35.350 30.025 L 35.400 29.975 L 35.450 30.025 L 35.500 29.975 L 35.550 30.025 L 35.600 29.975 L 35.650 30.025 L 35.700 29.975 L 35.750 30.025 L 35.800 29.975 L 35.850 30.025 L 35.900 29.975 L 35.950 30.025 L 36.000 29.975 L 36.050 30.025 L 36.100 29.975 L 36.150 30.025 L 36.200 29.975 L 36.250 30.025 L 36.300 29.975 L 36.350 30.025 L 36.400 29.975 L 36.450 30.025 L 36.500 29.975 L 36.550 30.025 L 36.600 29.975 L 36.650 30.025 L 36.700 29.975 L 36.750 30.025 L 36.800 29.975 L 36.850 30.025 L 36.900 29.975 L 36.950 30.025 L 37.000 29.975 L 37.050 30.025 L 37.100 29.975 L 37.150 30.025 L 37.200 29.975 L 37.250 30.025 L 37.300 29.975 L 37.350 30.025 L 37.400 29.975 L 37.450 30.025 L 37.500 29.975 L 37.550 30.025 L 37.600 29.975 L 37.650 30.025 L 37.700 29.975 L 37.750 30.025 L 37.800 29.975 L 37.850 30.025 L 37.900 29.975 L 37.950 30.025 L 38.000 29.975 L 38.050 30.025 L 38.100 29.975 L 38.150 30.025 L 38.200 29.975 L 38.250 30.025 L 38.300 29.975 L 38.350 30.025 L 38.400 29.975 L 38.450 30.025 L 38.500 29.975 L 38.550 30.025 L 38.600 29.975 L 38.650 30.025 L 38.700 29.975 L 38.750 30.025 L 38.800 29.975 L 38.850 30.025 L 38.900 29.975 L 38.950 30.025 L 39.000 29.975 L 39.050 30.025 L 39.100 29.975 L 39.150 30.025 L 39.200 29.975 L 39.250 30.025 L 39.300 29.975 L 39.350 30.025 L 39.400 29.975 L 39.450 30.025 L 39.500 29.975 L 39.550 30.025 L 39.600 29.975 L 39.650 30.025 L 39.700 29.975 L 39.750 30.025 L 39.800 29.975 L 39.850 30.025 L 39.900 29.975 L 39.950 30.025 L 40.000 29.975 Z" fill="none" stroke="#000000" stroke-width="0.1"/>
</svg>
